<svg width="192" height="32" viewBox="0 0 192 32" fill="none" xmlns="http://www.w3.org/2000/svg">
<path d="M7.77166 26.1764C6.80259 25.1946 6.80259 23.6025 7.77166 22.6207L9.50279 20.8666L14.7679 26.3578L11.4744 27.2119L7.77166 26.1764Z" fill="url(#paint0_linear_8_1980)"/>
<path d="M0.705524 19.2081C0.0997049 18.5942 0.0997049 17.5988 0.705524 16.985L3.14582 14.5124L8.18236 19.6155L0.705524 19.2081Z" fill="url(#paint1_linear_8_1980)"/>
<path d="M32.4999 17.8412L19.277 31.2389C18.2721 32.2537 16.6474 32.2537 15.6427 31.2389L2.4199 17.8412C1.4183 16.823 1.4183 15.1767 2.4199 14.1588L15.6427 0.761128C16.6477 -0.253709 18.2724 -0.253709 19.277 0.761128L32.4999 14.1588C33.5015 15.1767 33.5015 16.823 32.4999 17.8412Z" fill="url(#paint2_linear_8_1980)"/>
<path opacity="0.28" d="M31.6742 14.2545C29.1622 15.4844 25.3744 15.9833 19.988 13.5471C13.1823 10.473 6.71285 12.7241 2.53687 15.104C2.62502 14.9321 2.73901 14.7701 2.88279 14.6248L16.1023 1.22706C16.4643 0.863323 16.9473 0.661896 17.4595 0.661896C17.9717 0.661896 18.4544 0.863631 18.8168 1.23045L31.6742 14.2545Z" fill="url(#paint3_linear_8_1980)"/>
<g opacity="0.44">
<path d="M26.7541 17.3286L24.8323 24.6043L23.7295 22.7302L20.3171 26.1911C19.521 26.9944 18.6434 27.6886 17.7005 28.2571C16.4737 29.0009 15.1003 29.3413 13.7397 29.3117L11.4396 26.9811C13.9613 26.8388 16.3071 25.7812 18.1081 23.9566L21.5859 20.4363L19.4326 19.1307L26.7541 17.3286Z" fill="url(#paint4_linear_8_1980)"/>
<path d="M22.8956 8.66818L20.638 17.2165L19.3394 15.015L15.3297 19.0743C14.4521 19.9635 13.4864 20.7372 12.4587 21.3818C10.847 22.3899 9.02349 22.8232 7.22883 22.7139L4.57635 20.0263C7.64314 19.9306 10.5631 18.6579 12.739 16.453L16.8171 12.3176L14.292 10.7872L22.8956 8.66818Z" fill="url(#paint5_linear_8_1980)"/>
</g>
<path d="M26.1039 16.5042L24.1822 23.7799L23.0764 21.9058L19.664 25.3633C18.8685 26.1694 17.9906 26.8611 17.0495 27.4312C14.0648 29.2388 10.2308 28.6678 7.77222 26.1764H10.1961C12.9398 26.1764 15.5172 25.0954 17.4583 23.1285L20.9327 19.6113L18.7827 18.3057L26.1039 16.5042Z" fill="url(#paint6_linear_8_1980)"/>
<path d="M22.2446 7.84L19.987 16.3917L18.6854 14.1868L14.6756 18.2495C13.7981 19.1387 12.8351 19.9102 11.8055 20.5558C8.25815 22.7807 3.65569 22.1971 0.705627 19.208H3.55386C6.75409 19.208 9.82331 17.92 12.0861 15.627L16.1663 11.4925L13.6412 9.96207L22.2446 7.84Z" fill="url(#paint7_linear_8_1980)"/>
<g opacity="0.5">
<path opacity="0.78" d="M25.6451 16.9555L24.3435 21.8874C23.3744 21.1602 22.3044 20.4792 21.1429 19.8645L21.4594 19.5472L19.6325 18.4366L25.6451 16.9555Z" fill="url(#paint8_linear_8_1980)"/>
<path opacity="0.78" d="M21.7854 8.29463L19.8704 15.5503L18.7481 13.6528L14.9931 17.4608C14.0992 17.2163 13.1793 17.0081 12.2364 16.8359C11.9592 16.7863 11.6817 16.7401 11.4078 16.697C11.7209 16.4358 12.0245 16.1549 12.3148 15.8608L16.693 11.4278L14.4907 10.0924L21.7854 8.29463Z" fill="url(#paint9_linear_8_1980)"/>
</g>
<path d="M42.1188 25.02H44.9688V8.22H41.0688V11.64H37.5888V6.06H57.2088V11.64H53.7288V8.22H49.8288V25.02H52.6788V27H42.1188V25.02ZM58.8647 25.02H60.6647V14.31L58.8647 13.92V12.21L65.1347 10.92V13.89H65.2547C65.5347 13.05 65.9847 12.35 66.6047 11.79C67.2247 11.21 68.0347 10.92 69.0347 10.92C70.0147 10.92 70.7847 11.19 71.3447 11.73C71.9047 12.25 72.1847 12.97 72.1847 13.89C72.1847 14.69 71.9747 15.32 71.5547 15.78C71.1347 16.24 70.5447 16.47 69.7847 16.47C69.0647 16.47 68.5147 16.28 68.1347 15.9C67.7547 15.5 67.5647 15.03 67.5647 14.49C67.5647 14.25 67.6147 14.03 67.7147 13.83C67.8147 13.63 67.9347 13.5 68.0747 13.44L68.0447 13.29C67.9847 13.27 67.8947 13.26 67.7747 13.26C67.4547 13.26 67.1447 13.35 66.8447 13.53C66.5447 13.71 66.2747 13.94 66.0347 14.22C65.7947 14.5 65.5947 14.81 65.4347 15.15C65.2947 15.49 65.2247 15.82 65.2247 16.14V25.02H67.6247V27H58.8647V25.02ZM80.5526 27.36C78.6326 27.36 77.2726 26.88 76.4726 25.92C75.6926 24.94 75.3026 23.48 75.3026 21.54V14.31L73.5026 13.92V12.21L79.8626 10.92V21.39C79.8626 22.45 80.0426 23.21 80.4026 23.67C80.7826 24.11 81.4126 24.33 82.2926 24.33C82.6326 24.33 82.9726 24.29 83.3126 24.21C83.6526 24.11 83.9526 23.97 84.2126 23.79C84.4726 23.59 84.6826 23.35 84.8426 23.07C85.0026 22.77 85.0826 22.41 85.0826 21.99V14.31L83.2826 13.92V12.21L89.6426 10.92V23.97L91.4426 24.36V26.07L85.1726 27.36V24.39H85.0226C84.7426 25.19 84.2426 25.89 83.5226 26.49C82.8026 27.07 81.8126 27.36 80.5526 27.36ZM100.186 27.36C99.0864 27.36 98.2464 27.16 97.6664 26.76C97.0864 26.34 96.7164 25.88 96.5564 25.38H96.4364V27H93.4964V22.32H96.4364V22.8C96.4364 23.58 96.6764 24.17 97.1564 24.57C97.6364 24.97 98.4164 25.17 99.4964 25.17C100.456 25.17 101.156 25.02 101.596 24.72C102.036 24.42 102.256 23.96 102.256 23.34C102.256 22.84 102.096 22.46 101.776 22.2C101.456 21.92 100.926 21.67 100.186 21.45L98.7764 21.06C97.0364 20.58 95.7464 19.94 94.9064 19.14C94.0864 18.32 93.6764 17.22 93.6764 15.84C93.6764 14.26 94.1964 13.05 95.2364 12.21C96.2764 11.35 97.6464 10.92 99.3464 10.92C100.406 10.92 101.216 11.12 101.776 11.52C102.336 11.92 102.696 12.37 102.856 12.87H102.976V11.28H105.916V15.96H102.976V15.42C102.976 14.66 102.736 14.09 102.256 13.71C101.796 13.31 101.036 13.11 99.9764 13.11C98.4564 13.11 97.6964 13.66 97.6964 14.76C97.6964 15.28 97.8464 15.7 98.1464 16.02C98.4664 16.34 99.0364 16.6 99.8564 16.8L101.146 17.13C101.986 17.35 102.726 17.6 103.366 17.88C104.006 18.16 104.536 18.5 104.956 18.9C105.396 19.28 105.726 19.75 105.946 20.31C106.166 20.85 106.276 21.5 106.276 22.26C106.276 23.92 105.716 25.19 104.596 26.07C103.476 26.93 102.006 27.36 100.186 27.36ZM113.506 27.3C112.306 27.3 111.416 27.04 110.836 26.52C110.276 25.98 109.996 25.19 109.996 24.15V13.38H107.896V11.28H108.706C109.366 11.28 109.846 11.14 110.146 10.86C110.466 10.56 110.766 10.12 111.046 9.54L112.306 6.93H114.556V11.28H118.006V13.38H114.556V24.96H118.006V26.73C117.686 26.87 117.116 27 116.296 27.12C115.476 27.24 114.546 27.3 113.506 27.3ZM120.437 8.04H118.937V6.06H127.757V8.04H125.357L128.777 22.77H128.897L133.067 6.06H137.117L141.467 22.77H141.587L144.827 8.04H142.427V6.06H148.877V8.04H147.377L142.757 27H138.077L133.967 11.88H133.847L129.737 27H125.057L120.437 8.04ZM154.028 9.21C153.188 9.21 152.528 8.98 152.048 8.52C151.588 8.06 151.358 7.44 151.358 6.66V6.51C151.358 5.73 151.588 5.11 152.048 4.65C152.528 4.19 153.188 3.96 154.028 3.96C154.868 3.96 155.518 4.19 155.978 4.65C156.458 5.11 156.698 5.73 156.698 6.51V6.66C156.698 7.44 156.458 8.06 155.978 8.52C155.518 8.98 154.868 9.21 154.028 9.21ZM149.978 25.02H151.778V14.31L149.978 13.92V12.21L156.338 10.92V25.02H158.138V27H149.978V25.02ZM166.837 27.36C165.737 27.36 164.897 27.16 164.317 26.76C163.737 26.34 163.367 25.88 163.207 25.38H163.087V27H160.147V22.32H163.087V22.8C163.087 23.58 163.327 24.17 163.807 24.57C164.287 24.97 165.067 25.17 166.147 25.17C167.107 25.17 167.807 25.02 168.247 24.72C168.687 24.42 168.907 23.96 168.907 23.34C168.907 22.84 168.747 22.46 168.427 22.2C168.107 21.92 167.577 21.67 166.837 21.45L165.427 21.06C163.687 20.58 162.397 19.94 161.557 19.14C160.737 18.32 160.327 17.22 160.327 15.84C160.327 14.26 160.847 13.05 161.887 12.21C162.927 11.35 164.297 10.92 165.997 10.92C167.057 10.92 167.867 11.12 168.427 11.52C168.987 11.92 169.347 12.37 169.507 12.87H169.627V11.28H172.567V15.96H169.627V15.42C169.627 14.66 169.387 14.09 168.907 13.71C168.447 13.31 167.687 13.11 166.627 13.11C165.107 13.11 164.347 13.66 164.347 14.76C164.347 15.28 164.497 15.7 164.797 16.02C165.117 16.34 165.687 16.6 166.507 16.8L167.797 17.13C168.637 17.35 169.377 17.6 170.017 17.88C170.657 18.16 171.187 18.5 171.607 18.9C172.047 19.28 172.377 19.75 172.597 20.31C172.817 20.85 172.927 21.5 172.927 22.26C172.927 23.92 172.367 25.19 171.247 26.07C170.127 26.93 168.657 27.36 166.837 27.36ZM182.971 27.36C181.731 27.36 180.631 27.16 179.671 26.76C178.731 26.34 177.931 25.77 177.271 25.05C176.631 24.31 176.141 23.44 175.801 22.44C175.461 21.42 175.291 20.31 175.291 19.11C175.291 17.85 175.461 16.71 175.801 15.69C176.161 14.67 176.661 13.81 177.301 13.11C177.961 12.41 178.741 11.87 179.641 11.49C180.561 11.11 181.581 10.92 182.701 10.92C183.821 10.92 184.831 11.09 185.731 11.43C186.631 11.77 187.391 12.26 188.011 12.9C188.651 13.52 189.141 14.28 189.481 15.18C189.821 16.08 189.991 17.08 189.991 18.18V19.2H180.121V20.4C180.121 21.74 180.471 22.75 181.171 23.43C181.871 24.11 182.801 24.45 183.961 24.45C185.041 24.45 185.911 24.21 186.571 23.73C187.231 23.23 187.701 22.63 187.981 21.93L189.631 22.92C189.451 23.42 189.191 23.93 188.851 24.45C188.511 24.97 188.071 25.45 187.531 25.89C186.991 26.31 186.341 26.66 185.581 26.94C184.821 27.22 183.951 27.36 182.971 27.36ZM180.121 17.31H185.281V16.89C185.281 15.45 185.051 14.44 184.591 13.86C184.131 13.28 183.501 12.99 182.701 12.99C181.901 12.99 181.271 13.28 180.811 13.86C180.351 14.44 180.121 15.45 180.121 16.89V17.31Z" fill="#00214F"/>
<defs>
<linearGradient id="paint0_linear_8_1980" x1="7.04483" y1="24.0391" x2="14.768" y2="24.0391" gradientUnits="userSpaceOnUse">
<stop stop-color="#B0D1FF"/>
<stop offset="1" stop-color="#4F93FF"/>
</linearGradient>
<linearGradient id="paint1_linear_8_1980" x1="0.251053" y1="17.064" x2="8.18224" y2="17.064" gradientUnits="userSpaceOnUse">
<stop stop-color="#B0D1FF"/>
<stop offset="1" stop-color="#4F93FF"/>
</linearGradient>
<linearGradient id="paint2_linear_8_1980" x1="17.3386" y1="28.9622" x2="17.6735" y2="-5.91041" gradientUnits="userSpaceOnUse">
<stop stop-color="#0058D4"/>
<stop offset="1" stop-color="#00245B"/>
</linearGradient>
<linearGradient id="paint3_linear_8_1980" x1="17.1942" y1="7.10729" x2="17.0826" y2="16.4181" gradientUnits="userSpaceOnUse">
<stop/>
<stop offset="1" stop-color="#B0D1FF"/>
</linearGradient>
<linearGradient id="paint4_linear_8_1980" x1="11.4402" y1="23.3211" x2="26.7542" y2="23.3211" gradientUnits="userSpaceOnUse">
<stop stop-color="#001334"/>
<stop offset="1" stop-color="#00245B"/>
</linearGradient>
<linearGradient id="paint5_linear_8_1980" x1="4.57672" y1="15.6991" x2="22.8955" y2="15.6991" gradientUnits="userSpaceOnUse">
<stop stop-color="#001334"/>
<stop offset="1" stop-color="#00245B"/>
</linearGradient>
<linearGradient id="paint6_linear_8_1980" x1="7.77219" y1="22.496" x2="26.104" y2="22.496" gradientUnits="userSpaceOnUse">
<stop stop-color="#0065FF"/>
<stop offset="1" stop-color="#00C4F7"/>
</linearGradient>
<linearGradient id="paint7_linear_8_1980" x1="0.705871" y1="14.872" x2="22.2447" y2="14.872" gradientUnits="userSpaceOnUse">
<stop stop-color="#0065FF"/>
<stop offset="1" stop-color="#00C4F7"/>
</linearGradient>
<linearGradient id="paint8_linear_8_1980" x1="23.7451" y1="17.2036" x2="20.1423" y2="23.1118" gradientUnits="userSpaceOnUse">
<stop/>
<stop offset="1" stop-color="#B0D1FF"/>
</linearGradient>
<linearGradient id="paint9_linear_8_1980" x1="16.7742" y1="13.351" x2="12.5186" y2="18.7511" gradientUnits="userSpaceOnUse">
<stop/>
<stop offset="1" stop-color="#B0D1FF"/>
</linearGradient>
</defs>
</svg>
